<svg xmlns="http://www.w3.org/2000/svg" xmlns:xlink="http://www.w3.org/1999/xlink" width="500" zoomAndPan="magnify" viewBox="0 0 375 374.999991" height="500" preserveAspectRatio="xMidYMid meet" version="1.2"><defs><clipPath id="56a53bbf50"><path d="M 75 0 L 300 0 C 319.890625 0 338.96875 7.902344 353.03125 21.96875 C 367.097656 36.03125 375 55.109375 375 75 L 375 300 C 375 319.890625 367.097656 338.96875 353.03125 353.03125 C 338.96875 367.097656 319.890625 375 300 375 L 75 375 C 55.109375 375 36.03125 367.097656 21.96875 353.03125 C 7.902344 338.96875 0 319.890625 0 300 L 0 75 C 0 55.109375 7.902344 36.03125 21.96875 21.96875 C 36.03125 7.902344 55.109375 0 75 0 Z M 75 0 "/></clipPath></defs><g id="d555b99802"><g clip-rule="nonzero" clip-path="url(#56a53bbf50)"><rect x="0" width="375" y="0" height="374.999991" style="fill:#f1f1f1;fill-opacity:1;stroke:none;"/></g><g style="fill:#141314;fill-opacity:1;"><g transform="translate(96.416014, 282.374981)"><path style="stroke:none" d="M 6.125 0 C 3.84375 0 2.703125 -1.140625 2.703125 -3.421875 L 2.703125 -165.0625 C 2.703125 -167.34375 3.84375 -168.484375 6.125 -168.484375 L 54.359375 -168.484375 C 56.640625 -168.484375 57.78125 -167.34375 57.78125 -165.0625 L 57.78125 -3.421875 C 57.78125 -1.140625 56.640625 0 54.359375 0 Z M 6.125 0 "/></g><g transform="translate(156.89601, 282.374981)"><path style="stroke:none" d="M 53.640625 -4.140625 L 61.5625 -75.78125 C 61.675781 -78.539062 63.175781 -79.921875 66.0625 -79.921875 L 114.84375 -79.921875 C 117.601562 -79.921875 118.984375 -78.539062 118.984375 -75.78125 L 118.984375 -4.140625 C 118.984375 -1.378906 117.601562 0 114.84375 0 L 57.234375 0 C 54.472656 0 53.273438 -1.378906 53.640625 -4.140625 Z M 43.734375 0 L 6.125 0 C 3.84375 0 2.703125 -1.140625 2.703125 -3.421875 L 2.703125 -165.0625 C 2.703125 -167.34375 3.84375 -168.484375 6.125 -168.484375 L 62.09375 -168.484375 C 64.738281 -168.484375 66 -167.101562 65.875 -164.34375 L 48.234375 -4.140625 C 47.878906 -1.378906 46.378906 0 43.734375 0 Z M 43.734375 0 "/></g></g></g></svg>